<mxfile host="app.diagrams.net" modified="2023-08-09T14:13:22.650Z" agent="Mozilla/5.0 (Windows NT 10.0; Win64; x64) AppleWebKit/537.36 (KHTML, like Gecko) Chrome/115.0.0.0 Safari/537.36" version="21.6.7" etag="4uSHOXMpNjtHt5Jj5E5R" type="github">
  <diagram name="Страница — 1" id="nBrP1E0GAgVyJa1ZpKWH">
    <mxGraphModel>
      <root>
        <mxCell id="0" />
        <mxCell id="1" parent="0" />
      </root>
    </mxGraphModel>
  </diagram>
</mxfile>
